<?xml version="1.0" standalone="no"?>
<!DOCTYPE svg PUBLIC "-//W3C//DTD SVG 20010904//EN"
 "http://www.w3.org/TR/2001/REC-SVG-20010904/DTD/svg10.dtd">
<svg version="1.0" xmlns="http://www.w3.org/2000/svg"
 width="530.000000pt" height="115.000000pt" viewBox="0 0 530.000000 115.000000"
 preserveAspectRatio="xMidYMid meet">

<g transform="translate(0.000000,115.000000) scale(0.100000,-0.100000)"
fill="#000000" stroke="none">
<path d="M493 1120 c-173 -31 -330 -146 -403 -295 -139 -283 -31 -615 244
-750 356 -176 772 60 803 455 6 78 -11 190 -28 190 -23 0 -69 -32 -101 -70
-37 -43 -56 -91 -65 -170 l-6 -50 -51 0 c-67 -1 -124 -27 -168 -79 -35 -42
-68 -130 -68 -184 0 -15 -3 -27 -8 -27 -4 0 -74 64 -156 142 l-148 142 6 57
c15 151 107 249 234 249 l49 0 7 56 c16 139 113 244 225 244 32 0 19 14 -36
40 -99 47 -232 67 -330 50z"/>
<path d="M3320 903 c0 -21 3 -62 6 -90 5 -41 11 -53 24 -53 13 0 19 12 24 53
3 28 6 69 6 90 0 35 -2 37 -30 37 -28 0 -30 -2 -30 -37z"/>
<path d="M1393 873 l-33 -4 0 -234 0 -233 65 -7 c127 -14 235 19 260 79 30 71
14 133 -41 162 l-33 18 31 26 c26 22 31 34 32 72 1 50 -17 79 -67 104 -28 15
-158 26 -214 17z m196 -77 c21 -19 28 -61 13 -82 -15 -23 -53 -34 -116 -34
l-66 0 0 71 0 71 74 -4 c55 -2 80 -8 95 -22z m1 -189 c37 -19 56 -60 45 -94
-15 -41 -66 -63 -147 -63 l-68 0 0 85 0 85 73 0 c39 0 83 -6 97 -13z"/>
<path d="M1953 871 c-120 -31 -188 -152 -163 -291 21 -115 103 -184 220 -184
140 -1 224 89 224 239 0 105 -38 176 -116 216 -45 23 -118 32 -165 20z m137
-70 c107 -57 107 -275 0 -332 -44 -24 -116 -24 -160 0 -107 57 -107 275 0 332
44 24 116 24 160 0z"/>
<path d="M2481 866 c-205 -67 -200 -402 7 -462 104 -31 209 8 259 94 25 42 28
57 28 137 0 80 -3 95 -28 137 -50 86 -165 126 -266 94z m159 -69 c54 -36 74
-80 74 -162 0 -118 -57 -185 -159 -185 -102 0 -159 67 -159 185 0 82 20 126
74 162 46 32 124 32 170 0z"/>
<path d="M2890 635 l0 -245 30 0 30 0 0 115 c0 63 4 115 8 115 24 0 221 -198
222 -222 0 -9 70 -11 70 -2 0 22 -112 154 -176 207 l-51 43 109 117 110 117
-35 0 c-32 0 -47 -11 -146 -112 l-111 -113 0 113 0 112 -30 0 -30 0 0 -245z"/>
<path d="M3565 870 c-37 -12 -73 -44 -86 -77 -31 -81 20 -149 139 -184 52 -15
102 -59 102 -88 0 -12 -11 -33 -25 -46 -20 -21 -34 -25 -83 -25 -32 0 -74 5
-92 12 -29 9 -35 9 -47 -7 -7 -11 -13 -22 -13 -26 0 -16 78 -33 145 -33 113
-1 175 43 175 124 0 68 -37 104 -153 150 -56 22 -97 59 -97 87 0 8 12 25 26
40 23 23 30 25 87 20 34 -3 70 -7 81 -9 12 -2 21 5 27 20 7 19 4 24 -18 33
-39 14 -134 20 -168 9z"/>
<path d="M4063 873 l-33 -4 0 -240 0 -239 30 0 30 0 0 89 0 88 80 6 c135 11
190 54 190 152 0 95 -63 144 -192 150 -40 2 -88 1 -105 -2z m187 -68 c34 -18
50 -43 50 -80 0 -63 -50 -95 -150 -95 l-60 0 0 95 0 95 65 0 c39 0 78 -6 95
-15z"/>
<path d="M4452 698 c3 -208 12 -240 77 -280 52 -33 151 -32 205 1 66 41 76 77
76 284 l0 177 -30 0 -30 0 0 -170 c0 -183 -6 -212 -52 -244 -29 -21 -107 -20
-137 0 -43 30 -51 71 -51 249 l0 165 -31 0 -30 0 3 -182z"/>
<path d="M4973 873 l-33 -4 0 -234 0 -233 65 -7 c127 -14 235 19 260 79 30 71
14 133 -41 162 l-33 18 31 26 c26 22 31 34 32 72 1 50 -17 79 -67 104 -28 15
-158 26 -214 17z m196 -77 c21 -19 28 -61 13 -82 -15 -23 -53 -34 -116 -34
l-66 0 0 71 0 71 74 -4 c55 -2 80 -8 95 -22z m1 -189 c37 -19 56 -60 45 -94
-15 -41 -66 -63 -147 -63 l-68 0 0 85 0 85 73 0 c39 0 83 -6 97 -13z"/>
</g>
</svg>
